<svg width="255" height="176" viewBox="0 0 255 176" fill="none" xmlns="http://www.w3.org/2000/svg">
<path d="M49.824 142.304C40.896 142.304 32.976 140.24 26.064 136.112C19.248 131.888 13.872 125.84 9.936 117.968C6.096 110 4.176 100.544 4.176 89.6C4.176 78.656 6.096 69.248 9.936 61.376C13.872 53.408 19.248 47.36 26.064 43.232C32.976 39.008 40.896 36.896 49.824 36.896C58.752 36.896 66.624 39.008 73.44 43.232C80.352 47.36 85.728 53.408 89.568 61.376C93.504 69.248 95.472 78.656 95.472 89.6C95.472 100.544 93.504 110 89.568 117.968C85.728 125.84 80.352 131.888 73.44 136.112C66.624 140.24 58.752 142.304 49.824 142.304ZM49.824 115.088C57.504 115.088 61.344 106.592 61.344 89.6C61.344 72.608 57.504 64.112 49.824 64.112C42.144 64.112 38.304 72.608 38.304 89.6C38.304 106.592 42.144 115.088 49.824 115.088ZM150.281 39.2V140H116.297V64.832H99.0169V39.2H150.281Z" fill="#FFC24C"/>
<path d="M182.92 38.584H192.52L176.68 83.8H167.08L182.92 38.584ZM205.811 79.768C202.835 79.768 200.195 79.08 197.891 77.704C195.619 76.296 193.827 74.28 192.515 71.656C191.235 69 190.595 65.848 190.595 62.2C190.595 58.552 191.235 55.416 192.515 52.792C193.827 50.136 195.619 48.12 197.891 46.744C200.195 45.336 202.835 44.632 205.811 44.632C208.787 44.632 211.411 45.336 213.683 46.744C215.987 48.12 217.779 50.136 219.059 52.792C220.371 55.416 221.027 58.552 221.027 62.2C221.027 65.848 220.371 69 219.059 71.656C217.779 74.28 215.987 76.296 213.683 77.704C211.411 79.08 208.787 79.768 205.811 79.768ZM205.811 70.696C208.371 70.696 209.651 67.864 209.651 62.2C209.651 56.536 208.371 53.704 205.811 53.704C203.251 53.704 201.971 56.536 201.971 62.2C201.971 67.864 203.251 70.696 205.811 70.696ZM242.07 57.256C244.118 57.256 246.022 57.704 247.781 58.6C249.542 59.496 250.95 60.76 252.006 62.392C253.062 64.024 253.59 65.896 253.59 68.008C253.59 70.344 252.982 72.408 251.766 74.2C250.582 75.992 248.95 77.368 246.87 78.328C244.79 79.288 242.486 79.768 239.958 79.768C236.726 79.768 233.894 79.144 231.462 77.896C229.062 76.648 227.19 74.792 225.846 72.328C224.502 69.864 223.83 66.84 223.83 63.256C223.83 59.416 224.598 56.088 226.134 53.272C227.702 50.456 229.878 48.312 232.662 46.84C235.478 45.368 238.742 44.632 242.454 44.632C244.47 44.632 246.39 44.872 248.214 45.352C250.038 45.8 251.59 46.44 252.87 47.272L248.79 55.192C247.126 54.008 245.094 53.416 242.694 53.416C240.742 53.416 239.126 53.912 237.846 54.904C236.598 55.864 235.782 57.272 235.398 59.128C237.158 57.88 239.382 57.256 242.07 57.256ZM239.19 71.944C240.214 71.944 241.046 71.64 241.686 71.032C242.326 70.424 242.646 69.592 242.646 68.536C242.646 67.48 242.326 66.648 241.686 66.04C241.046 65.4 240.214 65.08 239.19 65.08C238.166 65.08 237.334 65.4 236.694 66.04C236.054 66.648 235.734 67.48 235.734 68.536C235.734 69.592 236.054 70.424 236.694 71.032C237.334 71.64 238.166 71.944 239.19 71.944Z" fill="#FFC24C"/>
</svg>
