<svg width="282" height="176" viewBox="0 0 282 176" fill="none" xmlns="http://www.w3.org/2000/svg">
<path d="M49.824 142.304C40.896 142.304 32.976 140.24 26.064 136.112C19.248 131.888 13.872 125.84 9.936 117.968C6.096 110 4.176 100.544 4.176 89.6C4.176 78.656 6.096 69.248 9.936 61.376C13.872 53.408 19.248 47.36 26.064 43.232C32.976 39.008 40.896 36.896 49.824 36.896C58.752 36.896 66.624 39.008 73.44 43.232C80.352 47.36 85.728 53.408 89.568 61.376C93.504 69.248 95.472 78.656 95.472 89.6C95.472 100.544 93.504 110 89.568 117.968C85.728 125.84 80.352 131.888 73.44 136.112C66.624 140.24 58.752 142.304 49.824 142.304ZM49.824 115.088C57.504 115.088 61.344 106.592 61.344 89.6C61.344 72.608 57.504 64.112 49.824 64.112C42.144 64.112 38.304 72.608 38.304 89.6C38.304 106.592 42.144 115.088 49.824 115.088ZM183.113 113.648V140H102.329V119.12L138.761 85.424C141.929 82.448 144.041 79.904 145.097 77.792C146.153 75.68 146.681 73.616 146.681 71.6C146.681 69.104 145.817 67.184 144.089 65.84C142.457 64.4 140.057 63.68 136.889 63.68C133.817 63.68 130.937 64.496 128.249 66.128C125.561 67.76 123.497 70.064 122.057 73.04L96.4249 60.224C100.265 53.024 105.881 47.36 113.273 43.232C120.665 39.008 129.593 36.896 140.057 36.896C148.025 36.896 155.081 38.192 161.225 40.784C167.369 43.376 172.169 47.072 175.625 51.872C179.081 56.672 180.809 62.192 180.809 68.432C180.809 74 179.609 79.232 177.209 84.128C174.905 88.928 170.345 94.4 163.529 100.544L149.129 113.648H183.113Z" fill="#B3D1FF"/>
<path d="M209.92 38.584H219.52L203.68 83.8H194.08L209.92 38.584ZM232.811 79.768C229.835 79.768 227.195 79.08 224.891 77.704C222.619 76.296 220.827 74.28 219.515 71.656C218.235 69 217.595 65.848 217.595 62.2C217.595 58.552 218.235 55.416 219.515 52.792C220.827 50.136 222.619 48.12 224.891 46.744C227.195 45.336 229.835 44.632 232.811 44.632C235.787 44.632 238.411 45.336 240.683 46.744C242.987 48.12 244.779 50.136 246.059 52.792C247.371 55.416 248.027 58.552 248.027 62.2C248.027 65.848 247.371 69 246.059 71.656C244.779 74.28 242.987 76.296 240.683 77.704C238.411 79.08 235.787 79.768 232.811 79.768ZM232.811 70.696C235.371 70.696 236.651 67.864 236.651 62.2C236.651 56.536 235.371 53.704 232.811 53.704C230.251 53.704 228.971 56.536 228.971 62.2C228.971 67.864 230.251 70.696 232.811 70.696ZM269.07 57.256C271.118 57.256 273.022 57.704 274.781 58.6C276.542 59.496 277.95 60.76 279.006 62.392C280.062 64.024 280.59 65.896 280.59 68.008C280.59 70.344 279.982 72.408 278.766 74.2C277.582 75.992 275.95 77.368 273.87 78.328C271.79 79.288 269.486 79.768 266.958 79.768C263.726 79.768 260.894 79.144 258.462 77.896C256.062 76.648 254.19 74.792 252.846 72.328C251.502 69.864 250.83 66.84 250.83 63.256C250.83 59.416 251.598 56.088 253.134 53.272C254.702 50.456 256.878 48.312 259.662 46.84C262.478 45.368 265.742 44.632 269.454 44.632C271.47 44.632 273.39 44.872 275.214 45.352C277.038 45.8 278.59 46.44 279.87 47.272L275.79 55.192C274.126 54.008 272.094 53.416 269.694 53.416C267.742 53.416 266.126 53.912 264.846 54.904C263.598 55.864 262.782 57.272 262.398 59.128C264.158 57.88 266.382 57.256 269.07 57.256ZM266.19 71.944C267.214 71.944 268.046 71.64 268.686 71.032C269.326 70.424 269.646 69.592 269.646 68.536C269.646 67.48 269.326 66.648 268.686 66.04C268.046 65.4 267.214 65.08 266.19 65.08C265.166 65.08 264.334 65.4 263.694 66.04C263.054 66.648 262.734 67.48 262.734 68.536C262.734 69.592 263.054 70.424 263.694 71.032C264.334 71.64 265.166 71.944 266.19 71.944Z" fill="#B3D1FF"/>
</svg>
