<svg width="283" height="176" viewBox="0 0 283 176" fill="none" xmlns="http://www.w3.org/2000/svg">
<path d="M49.824 142.304C40.896 142.304 32.976 140.24 26.064 136.112C19.248 131.888 13.872 125.84 9.936 117.968C6.096 110 4.176 100.544 4.176 89.6C4.176 78.656 6.096 69.248 9.936 61.376C13.872 53.408 19.248 47.36 26.064 43.232C32.976 39.008 40.896 36.896 49.824 36.896C58.752 36.896 66.624 39.008 73.44 43.232C80.352 47.36 85.728 53.408 89.568 61.376C93.504 69.248 95.472 78.656 95.472 89.6C95.472 100.544 93.504 110 89.568 117.968C85.728 125.84 80.352 131.888 73.44 136.112C66.624 140.24 58.752 142.304 49.824 142.304ZM49.824 115.088C57.504 115.088 61.344 106.592 61.344 89.6C61.344 72.608 57.504 64.112 49.824 64.112C42.144 64.112 38.304 72.608 38.304 89.6C38.304 106.592 42.144 115.088 49.824 115.088ZM159.065 79.088C166.841 81.008 172.793 84.512 176.921 89.6C181.145 94.592 183.257 100.64 183.257 107.744C183.257 113.792 181.577 119.456 178.217 124.736C174.953 129.92 169.865 134.144 162.953 137.408C156.041 140.672 147.449 142.304 137.177 142.304C130.073 142.304 122.969 141.536 115.865 140C108.857 138.464 102.713 136.208 97.4329 133.232L108.953 108.176C113.081 110.576 117.497 112.4 122.201 113.648C127.001 114.896 131.609 115.52 136.025 115.52C139.961 115.52 143.129 114.848 145.529 113.504C147.929 112.16 149.129 110.24 149.129 107.744C149.129 103.136 145.145 100.832 137.177 100.832H123.785V79.952L138.617 64.832H102.617V39.2H177.785V60.08L159.065 79.088Z" fill="#FFC24C"/>
<path d="M210.92 38.584H220.52L204.68 83.8H195.08L210.92 38.584ZM233.811 79.768C230.835 79.768 228.195 79.08 225.891 77.704C223.619 76.296 221.827 74.28 220.515 71.656C219.235 69 218.595 65.848 218.595 62.2C218.595 58.552 219.235 55.416 220.515 52.792C221.827 50.136 223.619 48.12 225.891 46.744C228.195 45.336 230.835 44.632 233.811 44.632C236.787 44.632 239.411 45.336 241.683 46.744C243.987 48.12 245.779 50.136 247.059 52.792C248.371 55.416 249.027 58.552 249.027 62.2C249.027 65.848 248.371 69 247.059 71.656C245.779 74.28 243.987 76.296 241.683 77.704C239.411 79.08 236.787 79.768 233.811 79.768ZM233.811 70.696C236.371 70.696 237.651 67.864 237.651 62.2C237.651 56.536 236.371 53.704 233.811 53.704C231.251 53.704 229.971 56.536 229.971 62.2C229.971 67.864 231.251 70.696 233.811 70.696ZM270.07 57.256C272.118 57.256 274.022 57.704 275.781 58.6C277.542 59.496 278.95 60.76 280.006 62.392C281.062 64.024 281.59 65.896 281.59 68.008C281.59 70.344 280.982 72.408 279.766 74.2C278.582 75.992 276.95 77.368 274.87 78.328C272.79 79.288 270.486 79.768 267.958 79.768C264.726 79.768 261.894 79.144 259.462 77.896C257.062 76.648 255.19 74.792 253.846 72.328C252.502 69.864 251.83 66.84 251.83 63.256C251.83 59.416 252.598 56.088 254.134 53.272C255.702 50.456 257.878 48.312 260.662 46.84C263.478 45.368 266.742 44.632 270.454 44.632C272.47 44.632 274.39 44.872 276.214 45.352C278.038 45.8 279.59 46.44 280.87 47.272L276.79 55.192C275.126 54.008 273.094 53.416 270.694 53.416C268.742 53.416 267.126 53.912 265.846 54.904C264.598 55.864 263.782 57.272 263.398 59.128C265.158 57.88 267.382 57.256 270.07 57.256ZM267.19 71.944C268.214 71.944 269.046 71.64 269.686 71.032C270.326 70.424 270.646 69.592 270.646 68.536C270.646 67.48 270.326 66.648 269.686 66.04C269.046 65.4 268.214 65.08 267.19 65.08C266.166 65.08 265.334 65.4 264.694 66.04C264.054 66.648 263.734 67.48 263.734 68.536C263.734 69.592 264.054 70.424 264.694 71.032C265.334 71.64 266.166 71.944 267.19 71.944Z" fill="#FFC24C"/>
</svg>
