<svg width="299" height="176" viewBox="0 0 299 176" fill="none" xmlns="http://www.w3.org/2000/svg">
<path d="M49.824 142.304C40.896 142.304 32.976 140.24 26.064 136.112C19.248 131.888 13.872 125.84 9.936 117.968C6.096 110 4.176 100.544 4.176 89.6C4.176 78.656 6.096 69.248 9.936 61.376C13.872 53.408 19.248 47.36 26.064 43.232C32.976 39.008 40.896 36.896 49.824 36.896C58.752 36.896 66.624 39.008 73.44 43.232C80.352 47.36 85.728 53.408 89.568 61.376C93.504 69.248 95.472 78.656 95.472 89.6C95.472 100.544 93.504 110 89.568 117.968C85.728 125.84 80.352 131.888 73.44 136.112C66.624 140.24 58.752 142.304 49.824 142.304ZM49.824 115.088C57.504 115.088 61.344 106.592 61.344 89.6C61.344 72.608 57.504 64.112 49.824 64.112C42.144 64.112 38.304 72.608 38.304 89.6C38.304 106.592 42.144 115.088 49.824 115.088ZM201.655 122.72H188.263V140H155.287V122.72H103.015V101.12L145.783 39.2H180.631L142.615 96.368H156.295V80.96H188.263V96.368H201.655V122.72Z" fill="#B3D1FF"/>
<path d="M226.92 38.584H236.52L220.68 83.8H211.08L226.92 38.584ZM249.811 79.768C246.835 79.768 244.195 79.08 241.891 77.704C239.619 76.296 237.827 74.28 236.515 71.656C235.235 69 234.595 65.848 234.595 62.2C234.595 58.552 235.235 55.416 236.515 52.792C237.827 50.136 239.619 48.12 241.891 46.744C244.195 45.336 246.835 44.632 249.811 44.632C252.787 44.632 255.411 45.336 257.683 46.744C259.987 48.12 261.779 50.136 263.059 52.792C264.371 55.416 265.027 58.552 265.027 62.2C265.027 65.848 264.371 69 263.059 71.656C261.779 74.28 259.987 76.296 257.683 77.704C255.411 79.08 252.787 79.768 249.811 79.768ZM249.811 70.696C252.371 70.696 253.651 67.864 253.651 62.2C253.651 56.536 252.371 53.704 249.811 53.704C247.251 53.704 245.971 56.536 245.971 62.2C245.971 67.864 247.251 70.696 249.811 70.696ZM286.07 57.256C288.118 57.256 290.022 57.704 291.781 58.6C293.542 59.496 294.95 60.76 296.006 62.392C297.062 64.024 297.59 65.896 297.59 68.008C297.59 70.344 296.982 72.408 295.766 74.2C294.582 75.992 292.95 77.368 290.87 78.328C288.79 79.288 286.486 79.768 283.958 79.768C280.726 79.768 277.894 79.144 275.462 77.896C273.062 76.648 271.19 74.792 269.846 72.328C268.502 69.864 267.83 66.84 267.83 63.256C267.83 59.416 268.598 56.088 270.134 53.272C271.702 50.456 273.878 48.312 276.662 46.84C279.478 45.368 282.742 44.632 286.454 44.632C288.47 44.632 290.39 44.872 292.214 45.352C294.038 45.8 295.59 46.44 296.87 47.272L292.79 55.192C291.126 54.008 289.094 53.416 286.694 53.416C284.742 53.416 283.126 53.912 281.846 54.904C280.598 55.864 279.782 57.272 279.398 59.128C281.158 57.88 283.382 57.256 286.07 57.256ZM283.19 71.944C284.214 71.944 285.046 71.64 285.686 71.032C286.326 70.424 286.646 69.592 286.646 68.536C286.646 67.48 286.326 66.648 285.686 66.04C285.046 65.4 284.214 65.08 283.19 65.08C282.166 65.08 281.334 65.4 280.694 66.04C280.054 66.648 279.734 67.48 279.734 68.536C279.734 69.592 280.054 70.424 280.694 71.032C281.334 71.64 282.166 71.944 283.19 71.944Z" fill="#B3D1FF"/>
</svg>
