<svg width="285" height="176" viewBox="0 0 285 176" fill="none" xmlns="http://www.w3.org/2000/svg">
<path d="M49.824 142.304C40.896 142.304 32.976 140.24 26.064 136.112C19.248 131.888 13.872 125.84 9.936 117.968C6.096 110 4.176 100.544 4.176 89.6C4.176 78.656 6.096 69.248 9.936 61.376C13.872 53.408 19.248 47.36 26.064 43.232C32.976 39.008 40.896 36.896 49.824 36.896C58.752 36.896 66.624 39.008 73.44 43.232C80.352 47.36 85.728 53.408 89.568 61.376C93.504 69.248 95.472 78.656 95.472 89.6C95.472 100.544 93.504 110 89.568 117.968C85.728 125.84 80.352 131.888 73.44 136.112C66.624 140.24 58.752 142.304 49.824 142.304ZM49.824 115.088C57.504 115.088 61.344 106.592 61.344 89.6C61.344 72.608 57.504 64.112 49.824 64.112C42.144 64.112 38.304 72.608 38.304 89.6C38.304 106.592 42.144 115.088 49.824 115.088ZM145.063 74.768C159.175 74.768 169.543 77.744 176.167 83.696C182.887 89.552 186.247 97.28 186.247 106.88C186.247 113.216 184.567 119.072 181.207 124.448C177.943 129.728 172.855 134.048 165.943 137.408C159.031 140.672 150.439 142.304 140.167 142.304C133.063 142.304 125.959 141.536 118.855 140C111.847 138.464 105.703 136.208 100.423 133.232L111.943 108.176C116.167 110.576 120.583 112.4 125.191 113.648C129.895 114.896 134.455 115.52 138.871 115.52C142.807 115.52 145.975 114.848 148.375 113.504C150.871 112.064 152.119 110.096 152.119 107.6C152.119 105.2 151.015 103.424 148.807 102.272C146.599 101.024 142.615 100.4 136.855 100.4H107.623L112.663 39.2H179.623V64.832H140.599L139.879 74.768H145.063Z" fill="#FFC24C"/>
<path d="M212.92 38.584H222.52L206.68 83.8H197.08L212.92 38.584ZM235.811 79.768C232.835 79.768 230.195 79.08 227.891 77.704C225.619 76.296 223.827 74.28 222.515 71.656C221.235 69 220.595 65.848 220.595 62.2C220.595 58.552 221.235 55.416 222.515 52.792C223.827 50.136 225.619 48.12 227.891 46.744C230.195 45.336 232.835 44.632 235.811 44.632C238.787 44.632 241.411 45.336 243.683 46.744C245.987 48.12 247.779 50.136 249.059 52.792C250.371 55.416 251.027 58.552 251.027 62.2C251.027 65.848 250.371 69 249.059 71.656C247.779 74.28 245.987 76.296 243.683 77.704C241.411 79.08 238.787 79.768 235.811 79.768ZM235.811 70.696C238.371 70.696 239.651 67.864 239.651 62.2C239.651 56.536 238.371 53.704 235.811 53.704C233.251 53.704 231.971 56.536 231.971 62.2C231.971 67.864 233.251 70.696 235.811 70.696ZM272.07 57.256C274.118 57.256 276.022 57.704 277.781 58.6C279.542 59.496 280.95 60.76 282.006 62.392C283.062 64.024 283.59 65.896 283.59 68.008C283.59 70.344 282.982 72.408 281.766 74.2C280.582 75.992 278.95 77.368 276.87 78.328C274.79 79.288 272.486 79.768 269.958 79.768C266.726 79.768 263.894 79.144 261.462 77.896C259.062 76.648 257.19 74.792 255.846 72.328C254.502 69.864 253.83 66.84 253.83 63.256C253.83 59.416 254.598 56.088 256.134 53.272C257.702 50.456 259.878 48.312 262.662 46.84C265.478 45.368 268.742 44.632 272.454 44.632C274.47 44.632 276.39 44.872 278.214 45.352C280.038 45.8 281.59 46.44 282.87 47.272L278.79 55.192C277.126 54.008 275.094 53.416 272.694 53.416C270.742 53.416 269.126 53.912 267.846 54.904C266.598 55.864 265.782 57.272 265.398 59.128C267.158 57.88 269.382 57.256 272.07 57.256ZM269.19 71.944C270.214 71.944 271.046 71.64 271.686 71.032C272.326 70.424 272.646 69.592 272.646 68.536C272.646 67.48 272.326 66.648 271.686 66.04C271.046 65.4 270.214 65.08 269.19 65.08C268.166 65.08 267.334 65.4 266.694 66.04C266.054 66.648 265.734 67.48 265.734 68.536C265.734 69.592 266.054 70.424 266.694 71.032C267.334 71.64 268.166 71.944 269.19 71.944Z" fill="#FFC24C"/>
</svg>
