<svg width="291" height="176" viewBox="0 0 291 176" fill="none" xmlns="http://www.w3.org/2000/svg">
<path d="M49.824 142.304C40.896 142.304 32.976 140.24 26.064 136.112C19.248 131.888 13.872 125.84 9.936 117.968C6.096 110 4.176 100.544 4.176 89.6C4.176 78.656 6.096 69.248 9.936 61.376C13.872 53.408 19.248 47.36 26.064 43.232C32.976 39.008 40.896 36.896 49.824 36.896C58.752 36.896 66.624 39.008 73.44 43.232C80.352 47.36 85.728 53.408 89.568 61.376C93.504 69.248 95.472 78.656 95.472 89.6C95.472 100.544 93.504 110 89.568 117.968C85.728 125.84 80.352 131.888 73.44 136.112C66.624 140.24 58.752 142.304 49.824 142.304ZM49.824 115.088C57.504 115.088 61.344 106.592 61.344 89.6C61.344 72.608 57.504 64.112 49.824 64.112C42.144 64.112 38.304 72.608 38.304 89.6C38.304 106.592 42.144 115.088 49.824 115.088ZM158.599 74.768C164.743 74.768 170.455 76.112 175.735 78.8C181.015 81.488 185.239 85.28 188.407 90.176C191.575 95.072 193.159 100.688 193.159 107.024C193.159 114.032 191.335 120.224 187.687 125.6C184.135 130.976 179.239 135.104 172.999 137.984C166.759 140.864 159.847 142.304 152.263 142.304C142.567 142.304 134.071 140.432 126.775 136.688C119.575 132.944 113.959 127.376 109.927 119.984C105.895 112.592 103.879 103.52 103.879 92.768C103.879 81.248 106.183 71.264 110.791 62.816C115.495 54.368 122.023 47.936 130.375 43.52C138.823 39.104 148.615 36.896 159.751 36.896C165.799 36.896 171.559 37.616 177.031 39.056C182.503 40.4 187.159 42.32 190.999 44.816L178.759 68.576C173.767 65.024 167.671 63.248 160.471 63.248C154.615 63.248 149.767 64.736 145.927 67.712C142.183 70.592 139.735 74.816 138.583 80.384C143.863 76.64 150.535 74.768 158.599 74.768ZM149.959 118.832C153.031 118.832 155.527 117.92 157.447 116.096C159.367 114.272 160.327 111.776 160.327 108.608C160.327 105.44 159.367 102.944 157.447 101.12C155.527 99.2 153.031 98.24 149.959 98.24C146.887 98.24 144.391 99.2 142.471 101.12C140.551 102.944 139.591 105.44 139.591 108.608C139.591 111.776 140.551 114.272 142.471 116.096C144.391 117.92 146.887 118.832 149.959 118.832Z" fill="#B3D1FF"/>
<path d="M218.92 38.584H228.52L212.68 83.8H203.08L218.92 38.584ZM241.811 79.768C238.835 79.768 236.195 79.08 233.891 77.704C231.619 76.296 229.827 74.28 228.515 71.656C227.235 69 226.595 65.848 226.595 62.2C226.595 58.552 227.235 55.416 228.515 52.792C229.827 50.136 231.619 48.12 233.891 46.744C236.195 45.336 238.835 44.632 241.811 44.632C244.787 44.632 247.411 45.336 249.683 46.744C251.987 48.12 253.779 50.136 255.059 52.792C256.371 55.416 257.027 58.552 257.027 62.2C257.027 65.848 256.371 69 255.059 71.656C253.779 74.28 251.987 76.296 249.683 77.704C247.411 79.08 244.787 79.768 241.811 79.768ZM241.811 70.696C244.371 70.696 245.651 67.864 245.651 62.2C245.651 56.536 244.371 53.704 241.811 53.704C239.251 53.704 237.971 56.536 237.971 62.2C237.971 67.864 239.251 70.696 241.811 70.696ZM278.07 57.256C280.118 57.256 282.022 57.704 283.781 58.6C285.542 59.496 286.95 60.76 288.006 62.392C289.062 64.024 289.59 65.896 289.59 68.008C289.59 70.344 288.982 72.408 287.766 74.2C286.582 75.992 284.95 77.368 282.87 78.328C280.79 79.288 278.486 79.768 275.958 79.768C272.726 79.768 269.894 79.144 267.462 77.896C265.062 76.648 263.19 74.792 261.846 72.328C260.502 69.864 259.83 66.84 259.83 63.256C259.83 59.416 260.598 56.088 262.134 53.272C263.702 50.456 265.878 48.312 268.662 46.84C271.478 45.368 274.742 44.632 278.454 44.632C280.47 44.632 282.39 44.872 284.214 45.352C286.038 45.8 287.59 46.44 288.87 47.272L284.79 55.192C283.126 54.008 281.094 53.416 278.694 53.416C276.742 53.416 275.126 53.912 273.846 54.904C272.598 55.864 271.782 57.272 271.398 59.128C273.158 57.88 275.382 57.256 278.07 57.256ZM275.19 71.944C276.214 71.944 277.046 71.64 277.686 71.032C278.326 70.424 278.646 69.592 278.646 68.536C278.646 67.48 278.326 66.648 277.686 66.04C277.046 65.4 276.214 65.08 275.19 65.08C274.166 65.08 273.334 65.4 272.694 66.04C272.054 66.648 271.734 67.48 271.734 68.536C271.734 69.592 272.054 70.424 272.694 71.032C273.334 71.64 274.166 71.944 275.19 71.944Z" fill="#B3D1FF"/>
</svg>
