<svg width="560" height="328" viewBox="0 0 560 328" fill="none" xmlns="http://www.w3.org/2000/svg">
<path d="M416 288H8V8H520V248V249.541L520.572 250.971L546.945 316.904L417.735 288.19L416.878 288H416Z" fill="white" stroke="#FFA800" stroke-width="16"/>
<path d="M58.72 53.4C61.696 53.4 64.272 53.896 66.448 54.888C68.656 55.88 70.352 57.288 71.536 59.112C72.72 60.936 73.312 63.096 73.312 65.592C73.312 68.056 72.72 70.216 71.536 72.072C70.352 73.896 68.656 75.304 66.448 76.296C64.272 77.256 61.696 77.736 58.72 77.736H51.952V87H44.176V53.4H58.72ZM58.288 71.4C60.624 71.4 62.4 70.904 63.616 69.912C64.832 68.888 65.44 67.448 65.44 65.592C65.44 63.704 64.832 62.264 63.616 61.272C62.4 60.248 60.624 59.736 58.288 59.736H51.952V71.4H58.288ZM89.9148 87.384C87.1948 87.384 84.7468 86.824 82.5708 85.704C80.4268 84.552 78.7468 82.968 77.5308 80.952C76.3148 78.936 75.7068 76.648 75.7068 74.088C75.7068 71.528 76.3148 69.24 77.5308 67.224C78.7468 65.208 80.4268 63.64 82.5708 62.52C84.7468 61.368 87.1948 60.792 89.9148 60.792C92.6348 60.792 95.0668 61.368 97.2108 62.52C99.3548 63.64 101.035 65.208 102.251 67.224C103.467 69.24 104.075 71.528 104.075 74.088C104.075 76.648 103.467 78.936 102.251 80.952C101.035 82.968 99.3548 84.552 97.2108 85.704C95.0668 86.824 92.6348 87.384 89.9148 87.384ZM89.9148 81.24C91.8348 81.24 93.4028 80.6 94.6188 79.32C95.8668 78.008 96.4908 76.264 96.4908 74.088C96.4908 71.912 95.8668 70.184 94.6188 68.904C93.4028 67.592 91.8348 66.936 89.9148 66.936C87.9948 66.936 86.4108 67.592 85.1628 68.904C83.9148 70.184 83.2908 71.912 83.2908 74.088C83.2908 76.264 83.9148 78.008 85.1628 79.32C86.4108 80.6 87.9948 81.24 89.9148 81.24ZM137.794 80.856V92.568H130.834V87H112.69V92.568H105.73V80.856H106.786C108.386 80.824 109.49 79.88 110.098 78.024C110.706 76.168 111.09 73.528 111.25 70.104L111.586 61.176H134.098V80.856H137.794ZM118.018 70.632C117.922 73.256 117.714 75.4 117.394 77.064C117.106 78.728 116.546 79.992 115.714 80.856H126.61V67.32H118.162L118.018 70.632ZM142.506 61.176H149.946V76.536L162.522 61.176H169.386V87H161.946V71.64L149.418 87H142.506V61.176ZM198.28 67.32H189.544V87H182.104V67.32H173.368V61.176H198.28V67.32ZM226.298 74.184C226.298 74.28 226.25 74.952 226.154 76.2H206.618C206.97 77.8 207.802 79.064 209.114 79.992C210.426 80.92 212.058 81.384 214.01 81.384C215.354 81.384 216.538 81.192 217.562 80.808C218.618 80.392 219.594 79.752 220.49 78.888L224.474 83.208C222.042 85.992 218.49 87.384 213.818 87.384C210.906 87.384 208.33 86.824 206.09 85.704C203.85 84.552 202.122 82.968 200.906 80.952C199.69 78.936 199.082 76.648 199.082 74.088C199.082 71.56 199.674 69.288 200.858 67.272C202.074 65.224 203.722 63.64 205.802 62.52C207.914 61.368 210.266 60.792 212.858 60.792C215.386 60.792 217.674 61.336 219.722 62.424C221.77 63.512 223.37 65.08 224.522 67.128C225.706 69.144 226.298 71.496 226.298 74.184ZM212.906 66.456C211.21 66.456 209.786 66.936 208.634 67.896C207.482 68.856 206.778 70.168 206.522 71.832H219.242C218.986 70.2 218.282 68.904 217.13 67.944C215.978 66.952 214.57 66.456 212.906 66.456ZM256.571 61.176V87H249.083V67.32H240.923L240.683 71.88C240.555 75.272 240.235 78.088 239.723 80.328C239.211 82.568 238.379 84.328 237.227 85.608C236.075 86.888 234.475 87.528 232.427 87.528C231.339 87.528 230.043 87.336 228.539 86.952L228.923 80.808C229.435 80.872 229.803 80.904 230.027 80.904C231.147 80.904 231.979 80.504 232.523 79.704C233.099 78.872 233.483 77.832 233.675 76.584C233.867 75.304 234.011 73.624 234.107 71.544L234.491 61.176H256.571ZM277.74 69.432C281.1 69.464 283.676 70.232 285.468 71.736C287.26 73.208 288.156 75.304 288.156 78.024C288.156 80.872 287.148 83.096 285.132 84.696C283.148 86.264 280.348 87.048 276.732 87.048L263.772 87V61.176H271.212V69.432H277.74ZM276.06 81.72C277.5 81.752 278.604 81.448 279.372 80.808C280.14 80.168 280.524 79.208 280.524 77.928C280.524 76.68 280.14 75.768 279.372 75.192C278.636 74.616 277.532 74.312 276.06 74.28L271.212 74.232V81.72H276.06ZM295.383 78.072C296.727 78.072 297.831 78.504 298.695 79.368C299.559 80.2 299.991 81.304 299.991 82.68C299.991 83.32 299.911 83.96 299.751 84.6C299.591 85.24 299.239 86.2 298.695 87.48L295.959 94.392H291.207L293.319 86.76C292.519 86.44 291.879 85.928 291.399 85.224C290.951 84.488 290.727 83.64 290.727 82.68C290.727 81.304 291.159 80.2 292.023 79.368C292.919 78.504 294.039 78.072 295.383 78.072ZM63.328 132.512C66.368 133.536 67.888 135.584 67.888 138.656C67.888 140.992 67.008 142.8 65.248 144.08C63.488 145.36 60.864 146 57.376 146H43.6V120.176H56.8C60.032 120.176 62.56 120.768 64.384 121.952C66.208 123.104 67.12 124.736 67.12 126.848C67.12 128.128 66.784 129.264 66.112 130.256C65.472 131.216 64.544 131.968 63.328 132.512ZM50.464 130.784H56.128C58.752 130.784 60.064 129.856 60.064 128C60.064 126.176 58.752 125.264 56.128 125.264H50.464V130.784ZM56.752 140.912C59.504 140.912 60.88 139.968 60.88 138.08C60.88 137.088 60.56 136.368 59.92 135.92C59.28 135.44 58.272 135.2 56.896 135.2H50.464V140.912H56.752ZM87.0434 128.432C90.4034 128.464 92.9474 129.216 94.6754 130.688C96.4034 132.16 97.2674 134.272 97.2674 137.024C97.2674 139.904 96.2914 142.128 94.3394 143.696C92.3874 145.264 89.6194 146.048 86.0354 146.048L73.4594 146V120.176H80.8994V128.432H87.0434ZM100.051 120.176H107.491V146H100.051V120.176ZM85.3634 140.72C86.8034 140.752 87.9074 140.448 88.6754 139.808C89.4434 139.168 89.8274 138.208 89.8274 136.928C89.8274 135.68 89.4434 134.768 88.6754 134.192C87.9394 133.616 86.8354 133.312 85.3634 133.28L80.8994 133.232V140.72H85.3634ZM126.997 146.384C124.245 146.384 121.765 145.824 119.557 144.704C117.381 143.552 115.669 141.968 114.421 139.952C113.205 137.936 112.597 135.648 112.597 133.088C112.597 130.528 113.205 128.24 114.421 126.224C115.669 124.208 117.381 122.64 119.557 121.52C121.765 120.368 124.245 119.792 126.997 119.792C129.717 119.792 132.085 120.368 134.101 121.52C136.149 122.64 137.637 124.256 138.565 126.368L132.757 129.488C131.413 127.12 129.477 125.936 126.949 125.936C124.997 125.936 123.381 126.576 122.101 127.856C120.821 129.136 120.181 130.88 120.181 133.088C120.181 135.296 120.821 137.04 122.101 138.32C123.381 139.6 124.997 140.24 126.949 140.24C129.509 140.24 131.445 139.056 132.757 136.688L138.565 139.856C137.637 141.904 136.149 143.504 134.101 144.656C132.085 145.808 129.717 146.384 126.997 146.384ZM167.509 120.176V146H160.021V126.32H151.861L151.621 130.88C151.493 134.272 151.173 137.088 150.661 139.328C150.149 141.568 149.317 143.328 148.165 144.608C147.013 145.888 145.413 146.528 143.365 146.528C142.277 146.528 140.981 146.336 139.477 145.952L139.861 139.808C140.373 139.872 140.741 139.904 140.965 139.904C142.085 139.904 142.917 139.504 143.461 138.704C144.037 137.872 144.421 136.832 144.613 135.584C144.805 134.304 144.949 132.624 145.045 130.544L145.429 120.176H167.509ZM200.581 120.176L188.917 147.584C187.733 150.56 186.261 152.656 184.501 153.872C182.773 155.088 180.677 155.696 178.213 155.696C176.869 155.696 175.541 155.488 174.229 155.072C172.917 154.656 171.845 154.08 171.013 153.344L173.749 148.016C174.325 148.528 174.981 148.928 175.717 149.216C176.485 149.504 177.237 149.648 177.973 149.648C178.997 149.648 179.829 149.392 180.469 148.88C181.109 148.4 181.685 147.584 182.197 146.432L182.293 146.192L171.109 120.176H178.837L186.085 137.696L193.381 120.176H200.581ZM243.602 120.176V146H204.194V120.176H211.634V139.856H220.226V120.176H227.666V139.856H236.162V120.176H243.602ZM260.82 119.792C264.82 119.792 267.892 120.752 270.036 122.672C272.18 124.56 273.252 127.424 273.252 131.264V146H266.244V142.784C264.836 145.184 262.212 146.384 258.372 146.384C256.388 146.384 254.66 146.048 253.188 145.376C251.748 144.704 250.644 143.776 249.876 142.592C249.108 141.408 248.724 140.064 248.724 138.56C248.724 136.16 249.62 134.272 251.412 132.896C253.236 131.52 256.036 130.832 259.812 130.832H265.764C265.764 129.2 265.268 127.952 264.276 127.088C263.284 126.192 261.796 125.744 259.812 125.744C258.436 125.744 257.076 125.968 255.732 126.416C254.42 126.832 253.3 127.408 252.372 128.144L249.684 122.912C251.092 121.92 252.772 121.152 254.724 120.608C256.708 120.064 258.74 119.792 260.82 119.792ZM260.244 141.344C261.524 141.344 262.66 141.056 263.652 140.48C264.644 139.872 265.348 138.992 265.764 137.84V135.2H260.628C257.556 135.2 256.02 136.208 256.02 138.224C256.02 139.184 256.388 139.952 257.124 140.528C257.892 141.072 258.932 141.344 260.244 141.344ZM279.756 120.176H287.196V135.536L299.772 120.176H306.636V146H299.196V130.64L286.668 146H279.756V120.176ZM292.716 117.392C287.084 117.392 284.252 114.912 284.22 109.952H289.116C289.148 111.072 289.452 111.952 290.028 112.592C290.636 113.2 291.516 113.504 292.668 113.504C293.82 113.504 294.7 113.2 295.308 112.592C295.948 111.952 296.268 111.072 296.268 109.952H301.26C301.228 114.912 298.38 117.392 292.716 117.392ZM352.628 146V130.544L344.9 143.504H341.732L334.196 130.496V146H327.428V120.176H335.252L343.508 135.104L352.292 120.176H359.3L359.396 146H352.628ZM391.673 133.184C391.673 133.28 391.625 133.952 391.529 135.2H371.993C372.345 136.8 373.177 138.064 374.489 138.992C375.801 139.92 377.433 140.384 379.385 140.384C380.729 140.384 381.913 140.192 382.937 139.808C383.993 139.392 384.969 138.752 385.865 137.888L389.849 142.208C387.417 144.992 383.865 146.384 379.193 146.384C376.281 146.384 373.705 145.824 371.465 144.704C369.225 143.552 367.497 141.968 366.281 139.952C365.065 137.936 364.457 135.648 364.457 133.088C364.457 130.56 365.049 128.288 366.233 126.272C367.449 124.224 369.097 122.64 371.177 121.52C373.289 120.368 375.641 119.792 378.233 119.792C380.761 119.792 383.049 120.336 385.097 121.424C387.145 122.512 388.745 124.08 389.897 126.128C391.081 128.144 391.673 130.496 391.673 133.184ZM378.281 125.456C376.585 125.456 375.161 125.936 374.009 126.896C372.857 127.856 372.153 129.168 371.897 130.832H384.617C384.361 129.2 383.657 127.904 382.505 126.944C381.353 125.952 379.945 125.456 378.281 125.456ZM397.413 120.176H404.853V130.256H416.085V120.176H423.573V146H416.085V136.352H404.853V146H397.413V120.176ZM453.685 120.176V146H447.013V138.608H441.493L436.597 146H428.629L434.533 137.552C432.741 136.848 431.365 135.84 430.405 134.528C429.477 133.184 429.013 131.568 429.013 129.68C429.013 126.64 430.101 124.304 432.277 122.672C434.485 121.008 437.509 120.176 441.349 120.176H453.685ZM441.493 126.272C439.893 126.272 438.677 126.56 437.845 127.136C437.045 127.712 436.645 128.64 436.645 129.92C436.645 131.2 437.029 132.144 437.797 132.752C438.597 133.328 439.797 133.616 441.397 133.616H447.013V126.272H441.493ZM459.777 112.4H468.705L467.217 134.336H461.265L459.777 112.4ZM464.241 146.384C462.929 146.384 461.825 145.968 460.929 145.136C460.065 144.272 459.633 143.232 459.633 142.016C459.633 140.8 460.065 139.792 460.929 138.992C461.793 138.16 462.897 137.744 464.241 137.744C465.585 137.744 466.689 138.16 467.553 138.992C468.417 139.792 468.849 140.8 468.849 142.016C468.849 143.232 468.401 144.272 467.505 145.136C466.641 145.968 465.553 146.384 464.241 146.384Z" fill="#242424"/>
</svg>
