<svg width="214" height="48" viewBox="0 -4 214 24" fill="none" xmlns="http://www.w3.org/2000/svg">
<path d="M14.93 5.87H7.34V17H0.59V0.589998H14.93V5.87ZM24.7531 17.3C22.9331 17.3 21.2931 16.94 19.8331 16.22C18.3931 15.48 17.2631 14.47 16.4431 13.19C15.6231 11.89 15.2131 10.42 15.2131 8.78C15.2131 7.14 15.6231 5.68 16.4431 4.4C17.2631 3.1 18.3931 2.09 19.8331 1.37C21.2931 0.649999 22.9331 0.289999 24.7531 0.289999C26.5931 0.289999 28.2331 0.649999 29.6731 1.37C31.1331 2.09 32.2631 3.1 33.0631 4.4C33.8831 5.68 34.2931 7.14 34.2931 8.78C34.2931 10.42 33.8831 11.89 33.0631 13.19C32.2631 14.47 31.1331 15.48 29.6731 16.22C28.2331 16.94 26.5931 17.3 24.7531 17.3ZM24.7531 12.02C25.5331 12.02 26.1731 11.74 26.6731 11.18C27.1731 10.6 27.4231 9.8 27.4231 8.78C27.4231 7.76 27.1731 6.97 26.6731 6.41C26.1731 5.85 25.5331 5.57 24.7531 5.57C23.9731 5.57 23.3331 5.85 22.8331 6.41C22.3331 6.97 22.0831 7.76 22.0831 8.78C22.0831 9.8 22.3331 10.6 22.8331 11.18C23.3331 11.74 23.9731 12.02 24.7531 12.02ZM50.3408 8.39C52.1408 9.07 53.0408 10.34 53.0408 12.2C53.0408 13.7 52.4508 14.88 51.2708 15.74C50.0908 16.58 48.3608 17 46.0808 17H36.3908V0.589998H45.6008C47.8008 0.589998 49.5108 0.969999 50.7308 1.73C51.9508 2.47 52.5608 3.52 52.5608 4.88C52.5608 5.64 52.3708 6.32 51.9908 6.92C51.6108 7.52 51.0608 8.01 50.3408 8.39ZM42.3308 7.07H45.0008C45.9808 7.07 46.4708 6.68 46.4708 5.9C46.4708 5.52 46.3508 5.24 46.1108 5.06C45.8908 4.88 45.5208 4.79 45.0008 4.79H42.3308V7.07ZM45.4808 12.8C46.4608 12.8 46.9508 12.39 46.9508 11.57C46.9508 10.79 46.4608 10.4 45.4808 10.4H42.3308V12.8H45.4808ZM63.718 17.3C61.898 17.3 60.258 16.94 58.798 16.22C57.358 15.48 56.228 14.47 55.408 13.19C54.588 11.89 54.178 10.42 54.178 8.78C54.178 7.14 54.588 5.68 55.408 4.4C56.228 3.1 57.358 2.09 58.798 1.37C60.258 0.649999 61.898 0.289999 63.718 0.289999C65.558 0.289999 67.198 0.649999 68.638 1.37C70.098 2.09 71.228 3.1 72.028 4.4C72.848 5.68 73.258 7.14 73.258 8.78C73.258 10.42 72.848 11.89 72.028 13.19C71.228 14.47 70.098 15.48 68.638 16.22C67.198 16.94 65.558 17.3 63.718 17.3ZM63.718 12.02C64.498 12.02 65.138 11.74 65.638 11.18C66.138 10.6 66.388 9.8 66.388 8.78C66.388 7.76 66.138 6.97 65.638 6.41C65.138 5.85 64.498 5.57 63.718 5.57C62.938 5.57 62.298 5.85 61.798 6.41C61.298 6.97 61.048 7.76 61.048 8.78C61.048 9.8 61.298 10.6 61.798 11.18C62.298 11.74 62.938 12.02 63.718 12.02ZM86.3056 0.289999C87.7456 0.289999 89.0656 0.639999 90.2656 1.34C91.4856 2.02 92.4456 3.01 93.1456 4.31C93.8656 5.61 94.2256 7.11 94.2256 8.81C94.2256 10.51 93.8656 12.01 93.1456 13.31C92.4456 14.59 91.4856 15.58 90.2656 16.28C89.0656 16.96 87.7456 17.3 86.3056 17.3C84.4856 17.3 83.0956 16.83 82.1356 15.89V22.82H75.3556V0.589998H81.8056V1.94C82.7856 0.839999 84.2856 0.289999 86.3056 0.289999ZM84.6856 12.02C85.4656 12.02 86.1056 11.74 86.6056 11.18C87.1056 10.62 87.3556 9.83 87.3556 8.81C87.3556 7.79 87.1056 7 86.6056 6.44C86.1056 5.86 85.4656 5.57 84.6856 5.57C83.9056 5.57 83.2656 5.86 82.7656 6.44C82.2656 7 82.0156 7.79 82.0156 8.81C82.0156 9.83 82.2656 10.62 82.7656 11.18C83.2656 11.74 83.9056 12.02 84.6856 12.02ZM96.4201 0.589998H103.17V8L108.84 0.589998H115.08V17H108.33V9.56L102.69 17H96.4201V0.589998ZM133.786 5.87H128.776V17H122.026V5.87H117.016V0.589998H133.786V5.87Z" fill="#FFA800"/>
<path d="M156.136 11.69V20.24H149.866V17H140.806V20.24H134.536V11.69H135.016C135.976 11.69 136.646 11.24 137.026 10.34C137.406 9.42 137.626 8.1 137.686 6.38L137.896 0.589998H153.946V11.69H156.136ZM143.776 6.89C143.736 8.15 143.646 9.15 143.506 9.89C143.386 10.61 143.136 11.21 142.756 11.69H147.196V5.87H143.806L143.776 6.89ZM158.119 0.589998H164.869V8L170.539 0.589998H176.779V17H170.029V9.56L164.389 17H158.119V0.589998ZM195.485 5.87H190.475V17H183.725V5.87H178.715V0.589998H195.485V5.87ZM213.696 0.589998V17H207.696V12.83H206.046L203.376 17H196.206L199.746 11.87C198.706 11.37 197.906 10.7 197.346 9.86C196.806 9.02 196.536 8.04 196.536 6.92C196.536 4.94 197.296 3.39 198.816 2.27C200.336 1.15 202.416 0.589998 205.056 0.589998H213.696ZM205.206 5.84C204.046 5.84 203.466 6.28 203.466 7.16C203.466 7.66 203.606 8.03 203.886 8.27C204.186 8.49 204.626 8.6 205.206 8.6H207.696V5.84H205.206Z" fill="#0065FF"/>
</svg>
