<svg width="80" height="80" viewBox="-20 -20 80 80" fill="none" preserveAspectRatio="xMidYMid" xmlns="http://www.w3.org/2000/svg">
<path d="M8 30.0001C8.736 30.0001 9.33331 29.4028 9.33331 28.6668C9.33331 27.9308 8.736 27.3335 8 27.3335C7.264 27.3335 6.66669 27.9308 6.66669 28.6668C6.66669 29.4028 7.264 30.0001 8 30.0001Z" fill="white" fill-opacity="0.15"/>
<path d="M12.6933 9.33325H12.68C12.312 9.33325 12.02 9.63194 12.02 9.99994C12.02 10.3679 12.3253 10.6666 12.6933 10.6666C13.0613 10.6666 13.36 10.3679 13.36 9.99994C13.36 9.63194 13.0613 9.33325 12.6933 9.33325Z" fill="white" fill-opacity="0.15"/>
<path d="M9.33331 9.33325H6.66663C6.29869 9.33325 6 9.63194 6 9.99994C6 10.3679 6.29869 10.6666 6.66669 10.6666H9.33337C9.70138 10.6666 10.0001 10.3679 10.0001 9.99994C10.0001 9.63194 9.70131 9.33325 9.33331 9.33325Z" fill="white" fill-opacity="0.15"/>
<path d="M18.6667 28.6668C18.6667 29.4028 19.264 30.0001 20 30.0001C20.736 30.0001 21.3333 29.4028 21.3333 28.6668C21.3333 27.9308 20.736 27.3335 20 27.3335C19.264 27.3335 18.6667 27.9308 18.6667 28.6668Z" fill="white" fill-opacity="0.15"/>
<path d="M28.6667 0H11.3333C9.496 0 8 1.496 8 3.33331V4.66663C8 5.03463 8.29869 5.33331 8.66669 5.33331C9.03469 5.33331 9.33337 5.03463 9.33337 4.66663V3.33331C9.33337 2.23063 10.2307 1.33331 11.3334 1.33331H28.6667C29.7694 1.33331 30.6667 2.23063 30.6667 3.33331V28.6666C30.6667 29.7693 29.7694 30.6666 28.6667 30.6666H17.3333C16.9653 30.6666 16.6666 30.9653 16.6666 31.3333C16.6666 31.7013 16.9653 32 17.3333 32H28.6666C30.504 32 32 30.504 32 28.6667V3.33331C32 1.496 30.504 0 28.6667 0Z" fill="white" fill-opacity="0.15"/>
<path d="M12.6667 6.66675H3.33331C1.496 6.66675 0 8.16275 0 10.0001V28.6667C0 30.5041 1.496 32.0001 3.33331 32.0001H12.6666C14.504 32.0001 16 30.5041 16 28.6667V10.0001C16 8.16275 14.504 6.66675 12.6667 6.66675ZM14.6667 28.6667C14.6667 29.7694 13.7694 30.6667 12.6667 30.6667H3.33331C2.23063 30.6667 1.33331 29.7694 1.33331 28.6667V26.6667H14.6666V28.6667H14.6667ZM14.6667 25.3334H1.33331V10.0001C1.33331 8.89737 2.23063 8.00006 3.33331 8.00006H12.6666C13.7693 8.00006 14.6666 8.89737 14.6666 10.0001V25.3334H14.6667Z" fill="white" fill-opacity="0.15"/>
<path d="M29.3333 25.9999V3.33319C29.3333 2.96519 29.0346 2.6665 28.6666 2.6665H11.3333C10.9653 2.6665 10.6666 2.96519 10.6666 3.33319V4.6665C10.6666 5.0345 10.9653 5.33319 11.3333 5.33319C11.7013 5.33319 12 5.03457 12 4.66657V3.99988H28V25.3332H18C17.632 25.3332 17.3333 25.6319 17.3333 25.9999C17.3333 26.3679 17.632 26.6666 18 26.6666H28.6667C29.0347 26.6666 29.3333 26.3679 29.3333 25.9999Z" fill="white" fill-opacity="0.15"/>
</svg>
