<svg width="80" height="80" viewBox="-20 -20 80 80" fill="none" preserveAspectRatio="xMidYMid" xmlns="http://www.w3.org/2000/svg">
<path d="M31.9926 12.2327C31.9893 12.1959 31.982 12.1596 31.9707 12.1244C31.9634 12.093 31.9532 12.0623 31.9403 12.0327C31.9254 12.0037 31.9075 11.9763 31.887 11.951C31.8665 11.921 31.8426 11.8933 31.8161 11.8683C31.8075 11.8609 31.8038 11.8507 31.7948 11.8433L26.6654 7.85963V3.73092C26.6654 2.84725 25.949 2.13084 25.0654 2.13084H19.2853L16.971 0.333935C16.3993 -0.111963 15.5976 -0.111963 15.0258 0.333935L12.711 2.13084H6.931C6.04733 2.13084 5.33092 2.84719 5.33092 3.73092V7.85969L0.203221 11.8433C0.194158 11.8508 0.190408 11.861 0.181908 11.8684C0.155344 11.8933 0.13153 11.921 0.110967 11.9511C0.0904656 11.9764 0.0725897 12.0037 0.0576514 12.0327C0.0447133 12.0623 0.0345877 12.093 0.0272749 12.1245C0.0161493 12.1592 0.00883644 12.1949 0.00539876 12.2312C0.00539876 12.2424 -0.000976562 12.252 -0.000976562 12.2632V30.3989C-0.000226524 30.7382 0.109529 31.0682 0.312102 31.3403C0.31529 31.3451 0.315852 31.3509 0.31954 31.3552C0.32329 31.3594 0.33129 31.3643 0.336603 31.3701C0.636243 31.7644 1.10227 31.9969 1.59748 31.999H30.3989C30.8961 31.9975 31.3641 31.7639 31.6641 31.3675C31.6683 31.3622 31.6748 31.3606 31.6784 31.3553C31.6822 31.3499 31.6827 31.3451 31.6859 31.3403C31.8885 31.0682 31.9983 30.7382 31.999 30.399V12.2647C31.999 12.2535 31.9931 12.2439 31.9926 12.2327ZM15.6781 1.17554C15.8644 1.02753 16.1282 1.02753 16.3144 1.17554L17.5449 2.13078H14.4514L15.6781 1.17554ZM1.73186 30.9323L15.6782 20.0992C15.8646 19.9514 16.1282 19.9514 16.3145 20.0992L30.2645 30.9323H1.73186ZM30.9323 30.1008L16.971 19.2575C16.3992 18.812 15.5977 18.812 15.0258 19.2575L1.06408 30.1008V13.077L9.80427 19.864C10.0372 20.0446 10.3723 20.0022 10.5529 19.7693C10.7334 19.5364 10.6911 19.2013 10.4582 19.0207L1.57879 12.126L5.33098 9.21007V13.3313C5.33098 13.6259 5.56981 13.8647 5.86432 13.8647C6.1589 13.8647 6.39766 13.6259 6.39766 13.3313V3.73086C6.39766 3.43628 6.63642 3.19752 6.931 3.19752H25.0652C25.3598 3.19752 25.5986 3.43628 25.5986 3.73086V13.3313C25.5986 13.6259 25.8373 13.8647 26.1319 13.8647C26.4265 13.8647 26.6653 13.6259 26.6653 13.3313V9.21007L30.4174 12.126L21.5226 19.033C21.3696 19.149 21.2907 19.3382 21.316 19.5285C21.3414 19.7189 21.4671 19.8809 21.6452 19.9527C21.8233 20.0245 22.0262 19.9951 22.1765 19.8757L30.9322 13.077V30.1008H30.9323Z" fill="#0065FF" fill-opacity="0.1"/>
<path d="M22.3976 12.7979V10.6645C22.3976 7.12968 19.532 4.26416 15.9972 4.26416C12.4624 4.26416 9.59692 7.12968 9.59692 10.6645C9.59692 14.1993 12.4624 17.0648 15.9972 17.0648C16.2918 17.0648 16.5306 16.826 16.5306 16.5315C16.5306 16.2369 16.2918 15.9981 15.9972 15.9981C13.0516 15.9981 10.6637 13.6102 10.6637 10.6645C10.6637 7.7189 13.0516 5.33096 15.9972 5.33096C18.9429 5.33096 21.3308 7.7189 21.3308 10.6645V12.798C21.3308 13.3871 20.8532 13.8647 20.2641 13.8647C19.6749 13.8647 19.1973 13.3871 19.1973 12.798V10.6645C19.1973 10.37 18.9586 10.1312 18.664 10.1312C18.3694 10.1312 18.1307 10.37 18.1307 10.6645C18.1307 11.8428 17.1755 12.798 15.9972 12.798C14.819 12.798 13.8638 11.8428 13.8638 10.6645C13.8638 9.4863 14.819 8.53113 15.9972 8.53113C16.2918 8.53113 16.5306 8.29236 16.5306 7.99779C16.5306 7.70321 16.2918 7.46445 15.9972 7.46445C14.565 7.46126 13.305 8.41012 12.9125 9.78756C12.5199 11.165 13.0904 12.6355 14.3092 13.3878C15.528 14.1401 17.0982 13.991 18.1536 13.0226C18.2697 14.1505 19.2501 14.9892 20.3824 14.9293C21.5148 14.8693 22.4011 13.9318 22.3976 12.7979Z" fill="#0065FF" fill-opacity="0.1"/>
</svg>
