<svg width="80" height="80" viewBox="-20 -20 80 80" fill="none" preserveAspectRatio="xMidYMid" xmlns="http://www.w3.org/2000/svg">
<path d="M31.1733 10.0707C30.0767 8.97406 28.2924 8.97412 27.1955 10.0709C26.8581 10.4086 24.7041 12.5644 24.375 12.8938V5.46437C24.375 4.71312 24.0824 4.00687 23.5512 3.47568L20.8996 0.823994C20.3684 0.292744 19.6621 0.000244141 18.9109 0.000244141L2.8125 0.000244141C1.26169 0.000244141 0 1.26193 0 2.81274L0 29.1877C0 30.7386 1.26169 32.0002 2.8125 32.0002H21.5625C23.1133 32.0002 24.375 30.7386 24.375 29.1877V20.8522L31.1733 14.0482C32.2724 12.9491 32.2727 11.1699 31.1733 10.0707ZM18.7501 1.87524C18.9272 1.87524 19.2685 1.84456 19.5738 2.14981L22.2254 4.80149C22.5229 5.09906 22.5001 5.42512 22.5001 5.62524H18.7501V1.87524ZM22.5 29.1877C22.5 29.7047 22.0795 30.1252 21.5625 30.1252H2.8125C2.29556 30.1252 1.875 29.7047 1.875 29.1877L1.875 2.81274C1.875 2.29581 2.29556 1.87524 2.8125 1.87524L16.875 1.87524V6.56274C16.875 7.08049 17.2948 7.50024 17.8125 7.50024H22.5V14.7704C22.5 14.7704 19.7341 17.5387 19.734 17.5387L18.4088 18.864C18.3059 18.9669 18.2283 19.0924 18.1823 19.2304L16.8564 23.2079C16.7441 23.5448 16.8318 23.9162 17.0829 24.1673C17.3344 24.4187 17.7059 24.506 18.0423 24.3938L22.0198 23.068C22.1579 23.022 22.2834 22.9444 22.3862 22.8415L22.5 22.7277V29.1877ZM20.3975 19.5269L21.7233 20.8527L21.2169 21.3592L19.2282 22.0221L19.8911 20.0333L20.3975 19.5269ZM23.0489 19.5266L21.7231 18.2008C22.4291 17.4942 25.5646 14.356 26.2296 13.6904L27.5554 15.0162L23.0489 19.5266ZM29.8472 12.7226L28.8807 13.6899L27.5549 12.3641L28.5217 11.3965C28.8874 11.0309 29.4821 11.031 29.8476 11.3965C30.213 11.7621 30.2149 12.3548 29.8472 12.7226Z" fill="#0065FF" fill-opacity="0.1"/>
<path d="M17.8125 9.37524H4.6875C4.16975 9.37524 3.75 9.79499 3.75 10.3127C3.75 10.8305 4.16975 11.2502 4.6875 11.2502H17.8125C18.3302 11.2502 18.75 10.8305 18.75 10.3127C18.75 9.79499 18.3302 9.37524 17.8125 9.37524Z" fill="#0065FF" fill-opacity="0.1"/>
<path d="M14.0625 13.1252H4.6875C4.16975 13.1252 3.75 13.545 3.75 14.0627C3.75 14.5805 4.16975 15.0002 4.6875 15.0002H14.0625C14.5802 15.0002 15 14.5805 15 14.0627C15 13.545 14.5802 13.1252 14.0625 13.1252Z" fill="#0065FF" fill-opacity="0.1"/>
<path d="M14.0625 16.8752H4.6875C4.16975 16.8752 3.75 17.295 3.75 17.8127C3.75 18.3305 4.16975 18.7502 4.6875 18.7502H14.0625C14.5802 18.7502 15 18.3305 15 17.8127C15 17.295 14.5802 16.8752 14.0625 16.8752Z" fill="#0065FF" fill-opacity="0.1"/>
<path d="M14.0625 20.6252H4.6875C4.16975 20.6252 3.75 21.045 3.75 21.5627C3.75 22.0805 4.16975 22.5002 4.6875 22.5002H14.0625C14.5802 22.5002 15 22.0805 15 21.5627C15 21.045 14.5802 20.6252 14.0625 20.6252Z" fill="#0065FF" fill-opacity="0.1"/>
<path d="M17.8125 26.3752H12.1875C11.6697 26.3752 11.25 26.795 11.25 27.3127C11.25 27.8305 11.6697 28.2502 12.1875 28.2502H17.8125C18.3302 28.2502 18.75 27.8305 18.75 27.3127C18.75 26.795 18.3302 26.3752 17.8125 26.3752Z" fill="#0065FF" fill-opacity="0.1"/>
</svg>
