<svg width="80" height="80" viewBox="-20 -20 80 80" fill="none" preserveAspectRatio="xMidYMid" xmlns="http://www.w3.org/2000/svg">
<path d="M27.3137 4.68625C24.2917 1.66425 20.2738 0 16 0C11.7262 0 7.70825 1.66425 4.68625 4.68625C1.66431 7.70825 0 11.7262 0 16C0 20.2738 1.66431 24.2917 4.68625 27.3137C7.70825 30.3357 11.7262 32 16 32C20.2738 32 24.2917 30.3357 27.3137 27.3137C30.3357 24.2917 32 20.2738 32 16C32 11.7262 30.3357 7.70825 27.3137 4.68625ZM16 30.125C8.21144 30.125 1.875 23.7886 1.875 16C1.875 8.21144 8.21144 1.875 16 1.875C23.7886 1.875 30.125 8.21144 30.125 16C30.125 23.7886 23.7886 30.125 16 30.125Z" fill="#0065FF" fill-opacity="0.1"/>
<path d="M17.0042 15.0623H14.9958C13.8516 15.0623 12.9208 14.1315 12.9208 12.9874C12.9208 11.8432 13.8517 10.9124 14.9958 10.9124H19.0125C19.5303 10.9124 19.95 10.4927 19.95 9.9749C19.95 9.45715 19.5303 9.0374 19.0125 9.0374H16.9375V6.9624C16.9375 6.44465 16.5178 6.0249 16 6.0249C15.4823 6.0249 15.0625 6.44465 15.0625 6.9624V9.0374H14.9959C12.8178 9.0374 11.0459 10.8094 11.0459 12.9874C11.0459 15.1654 12.8179 16.9373 14.9959 16.9373H17.0043C18.1484 16.9373 19.0792 17.8682 19.0792 19.0123C19.0792 20.1565 18.1484 21.0873 17.0043 21.0873H12.9876C12.4698 21.0873 12.0501 21.5071 12.0501 22.0248C12.0501 22.5426 12.4698 22.9623 12.9876 22.9623H15.0625V25.0374C15.0625 25.5552 15.4823 25.9749 16 25.9749C16.5178 25.9749 16.9375 25.5552 16.9375 25.0374V22.9623H17.0042C19.1822 22.9623 20.9541 21.1903 20.9541 19.0123C20.9541 16.8343 19.1822 15.0623 17.0042 15.0623Z" fill="#0065FF" fill-opacity="0.1"/>
</svg>
