<svg width="80" height="80" viewBox="-20 -20 80 80" fill="none" preserveAspectRatio="xMidYMid" xmlns="http://www.w3.org/2000/svg">
<path d="M8.44403 11.9409L1.06698 4.56384C0.822858 4.3199 0.427171 4.31984 0.183047 4.56384C-0.0610155 4.8079 -0.0610155 5.20365 0.183047 5.44777L7.37672 12.6413L7.37547 13.5026C7.37497 13.8478 7.65441 14.1281 7.99954 14.1286C7.99985 14.1286 8.00016 14.1286 8.00047 14.1286C8.34522 14.1286 8.62497 13.8493 8.62547 13.5045L8.6271 12.3838C8.62735 12.2177 8.56147 12.0583 8.44403 11.9409Z" fill="white" fill-opacity="0.15"/>
<path d="M14.1169 7.37455C14.1166 7.37455 14.1163 7.37455 14.116 7.37455L12.6413 7.37661L5.44778 0.183C5.20372 -0.0609999 4.80797 -0.0609999 4.56384 0.183C4.31978 0.427062 4.31978 0.822811 4.56384 1.06694L11.9409 8.44392C12.0581 8.56111 12.2171 8.62699 12.3828 8.62699C12.3831 8.62699 12.3835 8.62699 12.3837 8.62699L14.1178 8.62455C14.463 8.62405 14.7424 8.34386 14.7419 7.99868C14.7414 7.65374 14.4617 7.37455 14.1169 7.37455Z" fill="white" fill-opacity="0.15"/>
<path d="M27.4363 0.183125C27.32 0.0668749 27.1588 0 26.9944 0C26.83 0 26.6688 0.0668124 26.5525 0.183125C26.4363 0.299437 26.3694 0.460624 26.3694 0.624999C26.3694 0.789374 26.4363 0.950624 26.5525 1.06681C26.6688 1.18312 26.83 1.25 26.9944 1.25C27.1588 1.25 27.32 1.18312 27.4363 1.06681C27.5525 0.950624 27.6194 0.789374 27.6194 0.624999C27.6194 0.460624 27.5525 0.299375 27.4363 0.183125Z" fill="white" fill-opacity="0.15"/>
<path d="M25.6057 2.01357C25.3616 1.76957 24.9659 1.76957 24.7218 2.01357L19.3586 7.37675L18.4972 7.3755C18.4942 7.3755 18.4913 7.3755 18.4883 7.3755C16.8348 7.3755 15.2805 8.01925 14.1111 9.18862L13.5494 9.75043C13.3053 9.99455 13.3053 10.3902 13.5494 10.6344C13.6714 10.7564 13.8314 10.8174 13.9913 10.8174C14.1513 10.8174 14.3113 10.7564 14.4333 10.6344L14.995 10.0726C15.9284 9.13918 17.1687 8.62556 18.4884 8.62556C18.4907 8.62556 18.4932 8.62556 18.4955 8.62556L19.6162 8.62712C19.6166 8.62712 19.6168 8.62712 19.6171 8.62712C19.7829 8.62712 19.9419 8.56124 20.0591 8.44406L25.6057 2.8975C25.8497 2.65344 25.8497 2.25769 25.6057 2.01357Z" fill="white" fill-opacity="0.15"/>
<path d="M31.8169 4.56386C31.5729 4.31986 31.1771 4.31986 30.933 4.56386L23.556 11.941C23.4386 12.0584 23.3727 12.2177 23.3729 12.3838L23.3754 14.1179C23.3759 14.4628 23.6556 14.742 24.0004 14.742C24.0007 14.742 24.0011 14.742 24.0014 14.742C24.3466 14.7415 24.626 14.4613 24.6255 14.116L24.6234 12.6413L31.8169 5.4478C32.061 5.20373 32.061 4.80798 31.8169 4.56386Z" fill="white" fill-opacity="0.15"/>
<path d="M31.8169 26.5521L24.6233 19.3585L24.6246 18.4972C24.6257 17.676 24.4668 16.8751 24.1522 16.1167C24.0199 15.7978 23.6543 15.6466 23.3354 15.7788C23.0166 15.911 22.8653 16.2767 22.9976 16.5955C23.2486 17.2008 23.3754 17.84 23.3745 18.4953L23.3729 19.6161C23.3726 19.7822 23.4385 19.9415 23.5559 20.059L30.9331 27.4361C31.0551 27.5581 31.2151 27.6191 31.375 27.6191C31.5349 27.6191 31.6949 27.5581 31.8169 27.4361C32.061 27.192 32.061 26.7962 31.8169 26.5521Z" fill="white" fill-opacity="0.15"/>
<path d="M27.4362 30.9331L20.0591 23.5561C19.9419 23.4389 19.7829 23.373 19.6172 23.373C19.6169 23.373 19.6166 23.373 19.6163 23.373L17.8822 23.3755C17.5371 23.376 17.2576 23.6562 17.2581 24.0014C17.2586 24.3463 17.5383 24.6255 17.8831 24.6255C17.8834 24.6255 17.8837 24.6255 17.8841 24.6255L19.3587 24.6234L26.5524 31.817C26.6744 31.939 26.8344 32.0001 26.9943 32.0001C27.1542 32.0001 27.3142 31.939 27.4362 31.817C27.6803 31.573 27.6803 31.1772 27.4362 30.9331Z" fill="white" fill-opacity="0.15"/>
<path d="M5.44755 30.9331C5.3313 30.8168 5.17005 30.75 5.00568 30.75C4.8413 30.75 4.68005 30.8168 4.5638 30.9331C4.44755 31.0494 4.38068 31.2106 4.38068 31.375C4.38068 31.5394 4.44755 31.7006 4.5638 31.8168C4.68005 31.9331 4.8413 32 5.00568 32C5.17005 32 5.3313 31.9331 5.44755 31.8168C5.56442 31.7006 5.63067 31.5394 5.63067 31.375C5.63067 31.2106 5.56442 31.0494 5.44755 30.9331Z" fill="white" fill-opacity="0.15"/>
<path d="M22.352 15.8582C22.2103 15.7164 22.05 15.6044 21.8792 15.5212C22.0253 15.2612 22.1035 14.967 22.1035 14.6607C22.1035 14.1904 21.9204 13.7482 21.5878 13.4155C21.4374 13.2652 21.2663 13.1477 21.0836 13.0632C21.3988 12.4079 21.2856 11.5963 20.743 11.0536C20.2004 10.5112 19.3892 10.3977 18.7339 10.7126C18.648 10.5277 18.5295 10.3572 18.381 10.2087C17.6944 9.52218 16.5774 9.5223 15.8908 10.2087L13.3955 12.704C13.3479 12.1982 13.0868 11.7169 12.6431 11.4062C12.2468 11.1287 11.7666 11.0247 11.291 11.1135C10.8153 11.2024 10.4051 11.4726 10.1356 11.8744L8.42353 14.4275C7.7356 15.4535 7.37285 16.6487 7.3746 17.8841L7.37672 19.3587L0.183108 26.5524C-0.0609545 26.7965 -0.0609545 27.1922 0.183108 27.4363C0.305107 27.5583 0.465107 27.6194 0.625045 27.6194C0.784982 27.6194 0.944982 27.5583 1.06698 27.4363L8.44403 20.0593C8.56141 19.9418 8.62735 19.7825 8.6271 19.6164L8.6246 17.8824C8.62322 16.8965 8.91266 15.9426 9.46178 15.1238L11.1738 12.5707C11.2547 12.4501 11.3778 12.369 11.5205 12.3424C11.6631 12.3158 11.8073 12.3469 11.9262 12.4302C12.1566 12.5915 12.2228 12.9064 12.077 13.1469L11.408 14.2504C11.197 14.5984 11.2763 15.0334 11.5965 15.2846C11.9167 15.5359 12.3581 15.5092 12.6459 15.2215L16.7747 11.0926C16.9739 10.8934 17.298 10.8934 17.4971 11.0926C17.5936 11.1891 17.6468 11.3174 17.6468 11.4538C17.6468 11.5696 17.6081 11.6792 17.5376 11.7689L15.0942 14.2179C14.8501 14.462 14.8501 14.8577 15.0942 15.1019C15.3383 15.3459 15.734 15.3459 15.9781 15.1019L19.1368 11.9375C19.336 11.7384 19.66 11.7384 19.8591 11.9375C20.0583 12.1367 20.0583 12.4607 19.8591 12.6599L16.6977 15.8214C16.4536 16.0655 16.4536 16.4612 16.6977 16.7054C16.8198 16.8274 16.9797 16.8884 17.1396 16.8884C17.2996 16.8884 17.4596 16.8274 17.5816 16.7054L20.0278 14.259C20.2281 14.1018 20.5196 14.115 20.704 14.2995C20.8005 14.396 20.8536 14.5242 20.8536 14.6607C20.8536 14.7971 20.8005 14.9253 20.704 15.0218L18.3011 17.4247C18.057 17.6688 18.057 18.0645 18.3011 18.3087C18.4231 18.4307 18.5831 18.4917 18.743 18.4917C18.903 18.4917 19.063 18.4307 19.185 18.3087L20.7918 16.7018C20.9921 16.5442 21.2837 16.5575 21.4683 16.7421C21.5648 16.8385 21.6179 16.9669 21.6179 17.1033C21.6179 17.2397 21.5648 17.368 21.4683 17.4644L17.0051 21.9276C16.0718 22.861 14.8315 23.3746 13.5118 23.3746C13.5094 23.3746 13.507 23.3746 13.5047 23.3746L12.3839 23.373C12.3836 23.373 12.3833 23.373 12.383 23.373C12.2173 23.373 12.0583 23.4389 11.9411 23.5561L6.1341 29.3631C5.89004 29.6071 5.89004 30.0029 6.1341 30.247C6.25616 30.369 6.4161 30.4301 6.57604 30.4301C6.73597 30.4301 6.89597 30.369 7.01797 30.247L12.6415 24.6234L13.5029 24.6247C13.506 24.6247 13.5088 24.6247 13.5118 24.6247C15.1653 24.6247 16.7196 23.9809 17.8891 22.8115L22.352 18.3483C23.0385 17.6618 23.0385 16.5447 22.352 15.8582Z" fill="white" fill-opacity="0.15"/>
</svg>
